<mxfile host="app.diagrams.net" modified="2021-12-09T17:39:56.251Z" agent="5.0 (Windows NT 6.1; Win64; x64) AppleWebKit/537.36 (KHTML, like Gecko) Chrome/85.0.4183.102 Safari/537.36" etag="7rSjnpMPYUbJ_UN58Rcq" version="15.9.4" type="github">
  <diagram name="Page-1" id="5d7acffa-a066-3a61-03fe-96351882024d">
    <mxGraphModel dx="1422" dy="806" grid="1" gridSize="10" guides="1" tooltips="1" connect="1" arrows="1" fold="1" page="1" pageScale="1" pageWidth="1100" pageHeight="850" background="#ffffff" math="0" shadow="0">
      <root>
        <mxCell id="0" />
        <mxCell id="1" parent="0" />
        <mxCell id="QwI8jiBFUvI7qdnpGYN1-1" value="&lt;table cellspacing=&quot;0&quot; cellpadding=&quot;0&quot; dir=&quot;ltr&quot; border=&quot;1&quot; style=&quot;table-layout: fixed ; font-size: 10pt ; font-family: &amp;quot;arial&amp;quot; ; width: 0px ; border-collapse: collapse ; border: none&quot;&gt;&lt;colgroup&gt;&lt;col width=&quot;379&quot;&gt;&lt;col width=&quot;221&quot;&gt;&lt;col width=&quot;100&quot;&gt;&lt;col width=&quot;158&quot;&gt;&lt;/colgroup&gt;&lt;tbody&gt;&lt;tr style=&quot;height: 21px&quot;&gt;&lt;td style=&quot;overflow: hidden ; padding: 2px 3px 2px 3px ; vertical-align: bottom&quot;&gt;Pelicula&lt;/td&gt;&lt;td style=&quot;overflow: hidden ; padding: 2px 3px 2px 3px ; vertical-align: bottom&quot;&gt;Director&lt;/td&gt;&lt;td style=&quot;overflow: hidden ; padding: 2px 3px 2px 3px ; vertical-align: bottom&quot;&gt;Año&lt;/td&gt;&lt;td style=&quot;overflow: hidden ; padding: 2px 3px 2px 3px ; vertical-align: bottom&quot;&gt;Etapa&lt;/td&gt;&lt;/tr&gt;&lt;tr style=&quot;height: 21px&quot;&gt;&lt;td style=&quot;overflow: hidden ; padding: 2px 3px 2px 3px ; vertical-align: bottom ; background-color: #ffffff ; font-family: &amp;quot;times new roman&amp;quot; ; font-size: 12pt ; font-weight: normal&quot;&gt;Railroading in the East *&lt;/td&gt;&lt;td style=&quot;overflow: hidden ; padding: 2px 3px 2px 3px ; vertical-align: bottom ; background-color: #ffffff ; font-family: &amp;quot;times new roman&amp;quot; ; font-size: 12pt ; font-weight: normal&quot;&gt;Thomas Edison&lt;/td&gt;&lt;td style=&quot;overflow: hidden ; padding: 2px 3px 2px 3px ; vertical-align: bottom ; background-color: #ffffff ; font-family: &amp;quot;times new roman&amp;quot; ; font-size: 12pt ; font-weight: normal&quot;&gt;1897-1906&lt;/td&gt;&lt;td style=&quot;overflow: hidden ; padding: 2px 3px 2px 3px ; vertical-align: bottom&quot;&gt;primitivo&lt;/td&gt;&lt;/tr&gt;&lt;tr style=&quot;height: 21px&quot;&gt;&lt;td style=&quot;overflow: hidden ; padding: 2px 3px 2px 3px ; vertical-align: bottom ; background-color: #ffffff ; font-family: &amp;quot;times new roman&amp;quot; ; font-size: 12pt ; font-weight: normal&quot;&gt;Asalto y robo a un tren&lt;/td&gt;&lt;td style=&quot;overflow: hidden ; padding: 2px 3px 2px 3px ; vertical-align: bottom ; background-color: #ffffff ; font-family: &amp;quot;times new roman&amp;quot; ; font-size: 12pt ; font-weight: normal&quot;&gt;Edwin S. Porter&lt;/td&gt;&lt;td style=&quot;overflow: hidden ; padding: 2px 3px 2px 3px ; vertical-align: bottom ; background-color: #ffffff ; font-family: &amp;quot;times new roman&amp;quot; ; font-size: 12pt ; font-weight: normal&quot;&gt;1903&lt;/td&gt;&lt;td style=&quot;overflow: hidden ; padding: 2px 3px 2px 3px ; vertical-align: bottom&quot;&gt;primitivo&lt;/td&gt;&lt;/tr&gt;&lt;tr style=&quot;height: 21px&quot;&gt;&lt;td style=&quot;overflow: hidden ; padding: 2px 3px 2px 3px ; vertical-align: bottom ; background-color: #ffffff ; font-family: &amp;quot;times new roman&amp;quot; ; font-size: 12pt ; font-weight: normal&quot;&gt;What happened in the tunnel&lt;/td&gt;&lt;td style=&quot;overflow: hidden ; padding: 2px 3px 2px 3px ; vertical-align: bottom ; background-color: #ffffff ; font-family: &amp;quot;times new roman&amp;quot; ; font-size: 12pt ; font-weight: normal&quot;&gt;Edwin S. Porter&lt;/td&gt;&lt;td style=&quot;overflow: hidden ; padding: 2px 3px 2px 3px ; vertical-align: bottom ; background-color: #ffffff ; font-family: &amp;quot;times new roman&amp;quot; ; font-size: 12pt ; font-weight: normal&quot;&gt;1903&lt;/td&gt;&lt;td style=&quot;overflow: hidden ; padding: 2px 3px 2px 3px ; vertical-align: bottom&quot;&gt;primitivo&lt;/td&gt;&lt;/tr&gt;&lt;tr style=&quot;height: 21px&quot;&gt;&lt;td style=&quot;overflow: hidden ; padding: 2px 3px 2px 3px ; vertical-align: bottom ; background-color: #ffffff ; font-family: &amp;quot;times new roman&amp;quot; ; font-size: 12pt ; font-weight: normal&quot;&gt;Hale’s Tours (Atracción primitiva)&lt;/td&gt;&lt;td style=&quot;overflow: hidden ; padding: 2px 3px 2px 3px ; vertical-align: bottom ; background-color: #ffffff ; font-family: &amp;quot;times new roman&amp;quot; ; font-size: 12pt ; font-weight: normal&quot;&gt;George C Hale&lt;/td&gt;&lt;td style=&quot;overflow: hidden ; padding: 2px 3px 2px 3px ; vertical-align: bottom ; background-color: #ffffff ; font-family: &amp;quot;times new roman&amp;quot; ; font-size: 12pt ; font-weight: normal&quot;&gt;1904&lt;/td&gt;&lt;td style=&quot;overflow: hidden ; padding: 2px 3px 2px 3px ; vertical-align: bottom&quot;&gt;primitivo&lt;/td&gt;&lt;/tr&gt;&lt;tr style=&quot;height: 21px&quot;&gt;&lt;td style=&quot;overflow: hidden ; padding: 2px 3px 2px 3px ; vertical-align: bottom ; background-color: #ffffff ; font-family: &amp;quot;times new roman&amp;quot; ; font-size: 12pt ; font-weight: normal&quot;&gt;The Hold-Up Of The Rocky Mountain Express&lt;/td&gt;&lt;td style=&quot;overflow: hidden ; padding: 2px 3px 2px 3px ; vertical-align: bottom ; font-family: &amp;quot;times new roman&amp;quot; ; font-size: 12pt ; font-weight: normal&quot;&gt;James Williamson&lt;/td&gt;&lt;td style=&quot;overflow: hidden ; padding: 2px 3px 2px 3px ; vertical-align: bottom ; background-color: #ffffff ; font-family: &amp;quot;times new roman&amp;quot; ; font-size: 12pt ; font-weight: normal&quot;&gt;1906&lt;/td&gt;&lt;td style=&quot;overflow: hidden ; padding: 2px 3px 2px 3px ; vertical-align: bottom&quot;&gt;primitivo&lt;/td&gt;&lt;/tr&gt;&lt;tr style=&quot;height: 21px&quot;&gt;&lt;td style=&quot;overflow: hidden ; padding: 2px 3px 2px 3px ; vertical-align: bottom ; background-color: #ffffff ; font-family: &amp;quot;times new roman&amp;quot; ; font-size: 12pt ; font-weight: normal&quot;&gt;El maquinista de la general&lt;/td&gt;&lt;td style=&quot;overflow: hidden ; padding: 2px 3px 2px 3px ; vertical-align: bottom ; font-family: &amp;quot;times new roman&amp;quot; ; font-size: 12pt ; font-weight: normal&quot;&gt;Buster Keaton, Clyde Bruckman&lt;/td&gt;&lt;td style=&quot;overflow: hidden ; padding: 2px 3px 2px 3px ; vertical-align: bottom ; background-color: #ffffff ; font-family: &amp;quot;times new roman&amp;quot; ; font-size: 12pt ; font-weight: normal&quot;&gt;1926&lt;/td&gt;&lt;td style=&quot;overflow: hidden ; padding: 2px 3px 2px 3px ; vertical-align: bottom&quot;&gt;clasico&lt;/td&gt;&lt;/tr&gt;&lt;tr style=&quot;height: 21px&quot;&gt;&lt;td style=&quot;overflow: hidden ; padding: 2px 3px 2px 3px ; vertical-align: bottom ; font-family: &amp;quot;times new roman&amp;quot; ; font-size: 12pt ; font-weight: normal&quot;&gt;Rome Express&lt;/td&gt;&lt;td style=&quot;overflow: hidden ; padding: 2px 3px 2px 3px ; vertical-align: bottom ; font-family: &amp;quot;times new roman&amp;quot; ; font-size: 12pt ; font-weight: normal&quot;&gt;Walter Forde&lt;/td&gt;&lt;td style=&quot;overflow: hidden ; padding: 2px 3px 2px 3px ; vertical-align: bottom ; background-color: #ffffff ; font-family: &amp;quot;times new roman&amp;quot; ; font-size: 12pt ; font-weight: normal&quot;&gt;1932&lt;/td&gt;&lt;td style=&quot;overflow: hidden ; padding: 2px 3px 2px 3px ; vertical-align: bottom&quot;&gt;clasico&lt;/td&gt;&lt;/tr&gt;&lt;tr style=&quot;height: 21px&quot;&gt;&lt;td style=&quot;overflow: hidden ; padding: 2px 3px 2px 3px ; vertical-align: bottom ; font-family: &amp;quot;times new roman&amp;quot; ; font-size: 12pt ; font-weight: normal&quot;&gt;El expreso de Shanghai&lt;/td&gt;&lt;td style=&quot;overflow: hidden ; padding: 2px 3px 2px 3px ; vertical-align: bottom ; background-color: #ffffff ; font-family: &amp;quot;times new roman&amp;quot; ; font-size: 12pt ; font-weight: normal&quot;&gt;Josef von Sternberg&lt;/td&gt;&lt;td style=&quot;overflow: hidden ; padding: 2px 3px 2px 3px ; vertical-align: bottom ; background-color: #ffffff ; font-family: &amp;quot;times new roman&amp;quot; ; font-size: 12pt ; font-weight: normal&quot;&gt;1932&lt;/td&gt;&lt;td style=&quot;overflow: hidden ; padding: 2px 3px 2px 3px ; vertical-align: bottom&quot;&gt;clasico&lt;/td&gt;&lt;/tr&gt;&lt;tr style=&quot;height: 21px&quot;&gt;&lt;td style=&quot;overflow: hidden ; padding: 2px 3px 2px 3px ; vertical-align: bottom ; font-family: &amp;quot;times new roman&amp;quot; ; font-size: 12pt ; font-weight: normal&quot;&gt;Alarma en el expreso&lt;/td&gt;&lt;td style=&quot;overflow: hidden ; padding: 2px 3px 2px 3px ; vertical-align: bottom ; background-color: #ffffff ; font-family: &amp;quot;times new roman&amp;quot; ; font-size: 12pt ; font-weight: normal&quot;&gt;Alfred Hitchcock&lt;/td&gt;&lt;td style=&quot;overflow: hidden ; padding: 2px 3px 2px 3px ; vertical-align: bottom ; background-color: #ffffff ; font-family: &amp;quot;times new roman&amp;quot; ; font-size: 12pt ; font-weight: normal&quot;&gt;1938&lt;/td&gt;&lt;td style=&quot;overflow: hidden ; padding: 2px 3px 2px 3px ; vertical-align: bottom&quot;&gt;clasico&lt;/td&gt;&lt;/tr&gt;&lt;tr style=&quot;height: 21px&quot;&gt;&lt;td style=&quot;overflow: hidden ; padding: 2px 3px 2px 3px ; vertical-align: bottom ; font-family: &amp;quot;times new roman&amp;quot; ; font-size: 12pt ; font-weight: normal&quot;&gt;The ghost train&lt;/td&gt;&lt;td style=&quot;overflow: hidden ; padding: 2px 3px 2px 3px ; vertical-align: bottom ; font-family: &amp;quot;times new roman&amp;quot; ; font-size: 12pt ; font-weight: normal&quot;&gt;Walter Forde&lt;/td&gt;&lt;td style=&quot;overflow: hidden ; padding: 2px 3px 2px 3px ; vertical-align: bottom ; background-color: #ffffff ; font-family: &amp;quot;times new roman&amp;quot; ; font-size: 12pt ; font-weight: normal&quot;&gt;1941&lt;/td&gt;&lt;td style=&quot;overflow: hidden ; padding: 2px 3px 2px 3px ; vertical-align: bottom&quot;&gt;clasico&lt;/td&gt;&lt;/tr&gt;&lt;tr style=&quot;height: 21px&quot;&gt;&lt;td style=&quot;overflow: hidden ; padding: 2px 3px 2px 3px ; vertical-align: bottom ; font-family: &amp;quot;times new roman&amp;quot; ; font-size: 12pt ; font-weight: normal&quot;&gt;Coche Cama a Trieste&lt;/td&gt;&lt;td style=&quot;overflow: hidden ; padding: 2px 3px 2px 3px ; vertical-align: bottom ; font-family: &amp;quot;times new roman&amp;quot; ; font-size: 12pt ; font-weight: normal&quot;&gt;Paddy Carstairs&lt;/td&gt;&lt;td style=&quot;overflow: hidden ; padding: 2px 3px 2px 3px ; vertical-align: bottom ; background-color: #ffffff ; font-family: &amp;quot;times new roman&amp;quot; ; font-size: 12pt ; font-weight: normal&quot;&gt;1948&lt;/td&gt;&lt;td style=&quot;overflow: hidden ; padding: 2px 3px 2px 3px ; vertical-align: bottom&quot;&gt;moderno&lt;/td&gt;&lt;/tr&gt;&lt;tr style=&quot;height: 21px&quot;&gt;&lt;td style=&quot;overflow: hidden ; padding: 2px 3px 2px 3px ; vertical-align: bottom ; background-color: #ffffff ; font-family: &amp;quot;times new roman&amp;quot; ; font-size: 12pt ; font-weight: normal&quot;&gt;Extraños en un tren&lt;/td&gt;&lt;td style=&quot;overflow: hidden ; padding: 2px 3px 2px 3px ; vertical-align: bottom ; background-color: #ffffff ; font-family: &amp;quot;times new roman&amp;quot; ; font-size: 12pt ; font-weight: normal&quot;&gt;Alfred Hitchcock&lt;/td&gt;&lt;td style=&quot;overflow: hidden ; padding: 2px 3px 2px 3px ; vertical-align: bottom ; background-color: #ffffff ; font-family: &amp;quot;times new roman&amp;quot; ; font-size: 12pt ; font-weight: normal&quot;&gt;1951&lt;/td&gt;&lt;td style=&quot;overflow: hidden ; padding: 2px 3px 2px 3px ; vertical-align: bottom&quot;&gt;moderno&lt;/td&gt;&lt;/tr&gt;&lt;tr style=&quot;height: 21px&quot;&gt;&lt;td style=&quot;overflow: hidden ; padding: 2px 3px 2px 3px ; vertical-align: bottom ; background-color: #ffffff ; font-family: &amp;quot;times new roman&amp;quot; ; font-size: 12pt ; font-weight: normal&quot;&gt;El tren&lt;/td&gt;&lt;td style=&quot;overflow: hidden ; padding: 2px 3px 2px 3px ; vertical-align: bottom ; background-color: #ffffff ; font-family: &amp;quot;times new roman&amp;quot; ; font-size: 12pt ; font-weight: normal&quot;&gt;John Frankenheimer&lt;/td&gt;&lt;td style=&quot;overflow: hidden ; padding: 2px 3px 2px 3px ; vertical-align: bottom ; background-color: #ffffff ; font-family: &amp;quot;times new roman&amp;quot; ; font-size: 12pt ; font-weight: normal&quot;&gt;1964&lt;/td&gt;&lt;td style=&quot;overflow: hidden ; padding: 2px 3px 2px 3px ; vertical-align: bottom&quot;&gt;moderno&lt;/td&gt;&lt;/tr&gt;&lt;tr style=&quot;height: 21px&quot;&gt;&lt;td style=&quot;overflow: hidden ; padding: 2px 3px 2px 3px ; vertical-align: bottom ; background-color: #ffffff ; font-family: &amp;quot;times new roman&amp;quot; ; font-size: 12pt ; font-weight: normal&quot;&gt;Pánico en el Transiberiano&lt;/td&gt;&lt;td style=&quot;overflow: hidden ; padding: 2px 3px 2px 3px ; vertical-align: bottom ; background-color: #ffffff ; font-family: &amp;quot;times new roman&amp;quot; ; font-size: 12pt ; font-weight: normal&quot;&gt;Eugenio Martín&lt;/td&gt;&lt;td style=&quot;overflow: hidden ; padding: 2px 3px 2px 3px ; vertical-align: bottom ; background-color: #ffffff ; font-family: &amp;quot;times new roman&amp;quot; ; font-size: 12pt ; font-weight: normal&quot;&gt;1972&lt;/td&gt;&lt;td style=&quot;overflow: hidden ; padding: 2px 3px 2px 3px ; vertical-align: bottom&quot;&gt;moderno&lt;/td&gt;&lt;/tr&gt;&lt;tr style=&quot;height: 21px&quot;&gt;&lt;td style=&quot;overflow: hidden ; padding: 2px 3px 2px 3px ; vertical-align: bottom ; background-color: #ffffff ; font-family: &amp;quot;times new roman&amp;quot; ; font-size: 12pt ; font-weight: normal&quot;&gt;Asesinato en el Orient Express&lt;/td&gt;&lt;td style=&quot;overflow: hidden ; padding: 2px 3px 2px 3px ; vertical-align: bottom ; background-color: #ffffff ; font-family: &amp;quot;times new roman&amp;quot; ; font-size: 12pt ; font-weight: normal&quot;&gt;Sidney Lumet&lt;/td&gt;&lt;td style=&quot;overflow: hidden ; padding: 2px 3px 2px 3px ; vertical-align: bottom ; background-color: #ffffff ; font-family: &amp;quot;times new roman&amp;quot; ; font-size: 12pt ; font-weight: normal&quot;&gt;1974&lt;/td&gt;&lt;td style=&quot;overflow: hidden ; padding: 2px 3px 2px 3px ; vertical-align: bottom&quot;&gt;moderno&lt;/td&gt;&lt;/tr&gt;&lt;tr style=&quot;height: 21px&quot;&gt;&lt;td style=&quot;overflow: hidden ; padding: 2px 3px 2px 3px ; vertical-align: bottom ; font-family: &amp;quot;times new roman&amp;quot; ; font-size: 12pt ; font-weight: normal&quot;&gt;Asalto al tren Pelham 123&lt;/td&gt;&lt;td style=&quot;overflow: hidden ; padding: 2px 3px 2px 3px ; vertical-align: bottom ; font-family: &amp;quot;times new roman&amp;quot; ; font-size: 12pt ; font-weight: normal&quot;&gt;Joseph Sargent&lt;/td&gt;&lt;td style=&quot;overflow: hidden ; padding: 2px 3px 2px 3px ; vertical-align: bottom ; background-color: #ffffff ; font-family: &amp;quot;times new roman&amp;quot; ; font-size: 12pt ; font-weight: normal&quot;&gt;1974&lt;/td&gt;&lt;td style=&quot;overflow: hidden ; padding: 2px 3px 2px 3px ; vertical-align: bottom&quot;&gt;moderno&lt;/td&gt;&lt;/tr&gt;&lt;tr style=&quot;height: 21px&quot;&gt;&lt;td style=&quot;overflow: hidden ; padding: 2px 3px 2px 3px ; vertical-align: bottom ; background-color: #ffffff ; font-family: &amp;quot;times new roman&amp;quot; ; font-size: 12pt ; font-weight: normal&quot;&gt;El expreso de Chicago&lt;/td&gt;&lt;td style=&quot;overflow: hidden ; padding: 2px 3px 2px 3px ; vertical-align: bottom ; background-color: #ffffff ; font-family: &amp;quot;times new roman&amp;quot; ; font-size: 12pt ; font-weight: normal&quot;&gt;Arthur Hiller&lt;/td&gt;&lt;td style=&quot;overflow: hidden ; padding: 2px 3px 2px 3px ; vertical-align: bottom ; background-color: #ffffff ; font-family: &amp;quot;times new roman&amp;quot; ; font-size: 12pt ; font-weight: normal&quot;&gt;1976&lt;/td&gt;&lt;td style=&quot;overflow: hidden ; padding: 2px 3px 2px 3px ; vertical-align: bottom&quot;&gt;moderno-contemporaneo&lt;/td&gt;&lt;/tr&gt;&lt;tr style=&quot;height: 21px&quot;&gt;&lt;td style=&quot;overflow: hidden ; padding: 2px 3px 2px 3px ; vertical-align: bottom ; font-family: &amp;quot;times new roman&amp;quot; ; font-size: 12pt ; font-weight: normal&quot;&gt;El puente de Casandra&lt;/td&gt;&lt;td style=&quot;overflow: hidden ; padding: 2px 3px 2px 3px ; vertical-align: bottom ; background-color: #ffffff ; font-family: &amp;quot;times new roman&amp;quot; ; font-size: 12pt ; font-weight: normal&quot;&gt;George Pan Cosmatos&lt;/td&gt;&lt;td style=&quot;overflow: hidden ; padding: 2px 3px 2px 3px ; vertical-align: bottom ; background-color: #ffffff ; font-family: &amp;quot;times new roman&amp;quot; ; font-size: 12pt ; font-weight: normal&quot;&gt;1976&lt;/td&gt;&lt;td style=&quot;overflow: hidden ; padding: 2px 3px 2px 3px ; vertical-align: bottom&quot;&gt;moderno-contemporaneo&lt;/td&gt;&lt;/tr&gt;&lt;tr style=&quot;height: 21px&quot;&gt;&lt;td style=&quot;overflow: hidden ; padding: 2px 3px 2px 3px ; vertical-align: bottom ; font-family: &amp;quot;times new roman&amp;quot; ; font-size: 12pt ; font-weight: normal&quot;&gt;The Lady Vanishes&lt;/td&gt;&lt;td style=&quot;overflow: hidden ; padding: 2px 3px 2px 3px ; vertical-align: bottom ; font-family: &amp;quot;times new roman&amp;quot; ; font-size: 12pt ; font-weight: normal&quot;&gt;Anthony Page&lt;/td&gt;&lt;td style=&quot;overflow: hidden ; padding: 2px 3px 2px 3px ; vertical-align: bottom ; background-color: #ffffff ; font-family: &amp;quot;times new roman&amp;quot; ; font-size: 12pt ; font-weight: normal&quot;&gt;1979&lt;/td&gt;&lt;td style=&quot;overflow: hidden ; padding: 2px 3px 2px 3px ; vertical-align: bottom&quot;&gt;contemporaneo&lt;/td&gt;&lt;/tr&gt;&lt;tr style=&quot;height: 21px&quot;&gt;&lt;td style=&quot;overflow: hidden ; padding: 2px 3px 2px 3px ; vertical-align: bottom ; background-color: #ffffff ; font-family: &amp;quot;times new roman&amp;quot; ; font-size: 12pt ; font-weight: normal&quot;&gt;El tren del infierno&lt;/td&gt;&lt;td style=&quot;overflow: hidden ; padding: 2px 3px 2px 3px ; vertical-align: bottom ; background-color: #ffffff ; font-family: &amp;quot;times new roman&amp;quot; ; font-size: 12pt ; font-weight: normal&quot;&gt;Andrei Konchalovsky&lt;/td&gt;&lt;td style=&quot;overflow: hidden ; padding: 2px 3px 2px 3px ; vertical-align: bottom ; background-color: #ffffff ; font-family: &amp;quot;times new roman&amp;quot; ; font-size: 12pt ; font-weight: normal&quot;&gt;1985&lt;/td&gt;&lt;td style=&quot;overflow: hidden ; padding: 2px 3px 2px 3px ; vertical-align: bottom&quot;&gt;contemporaneo&lt;/td&gt;&lt;/tr&gt;&lt;tr style=&quot;height: 21px&quot;&gt;&lt;td style=&quot;overflow: hidden ; padding: 2px 3px 2px 3px ; vertical-align: bottom ; background-color: #ffffff ; font-family: &amp;quot;times new roman&amp;quot; ; font-size: 12pt ; font-weight: normal&quot;&gt;Alerta máxima 2&lt;/td&gt;&lt;td style=&quot;overflow: hidden ; padding: 2px 3px 2px 3px ; vertical-align: bottom ; background-color: #ffffff ; font-family: &amp;quot;times new roman&amp;quot; ; font-size: 12pt ; font-weight: normal&quot;&gt;Geoff Murphy&lt;/td&gt;&lt;td style=&quot;overflow: hidden ; padding: 2px 3px 2px 3px ; vertical-align: bottom ; background-color: #ffffff ; font-family: &amp;quot;times new roman&amp;quot; ; font-size: 12pt ; font-weight: normal&quot;&gt;1995&lt;/td&gt;&lt;td style=&quot;overflow: hidden ; padding: 2px 3px 2px 3px ; vertical-align: bottom&quot;&gt;contemporaneo&lt;/td&gt;&lt;/tr&gt;&lt;tr style=&quot;height: 21px&quot;&gt;&lt;td style=&quot;overflow: hidden ; padding: 2px 3px 2px 3px ; vertical-align: bottom ; background-color: #ffffff ; font-family: &amp;quot;times new roman&amp;quot; ; font-size: 12pt ; font-weight: normal&quot;&gt;Antes del amanecer&lt;/td&gt;&lt;td style=&quot;overflow: hidden ; padding: 2px 3px 2px 3px ; vertical-align: bottom ; background-color: #ffffff ; font-family: &amp;quot;times new roman&amp;quot; ; font-size: 12pt ; font-weight: normal&quot;&gt;Richard Linklater&lt;/td&gt;&lt;td style=&quot;overflow: hidden ; padding: 2px 3px 2px 3px ; vertical-align: bottom ; background-color: #ffffff ; font-family: &amp;quot;times new roman&amp;quot; ; font-size: 12pt ; font-weight: normal&quot;&gt;1995&lt;/td&gt;&lt;td style=&quot;overflow: hidden ; padding: 2px 3px 2px 3px ; vertical-align: bottom&quot;&gt;contemporaneo&lt;/td&gt;&lt;/tr&gt;&lt;tr style=&quot;height: 21px&quot;&gt;&lt;td style=&quot;overflow: hidden ; padding: 2px 3px 2px 3px ; vertical-align: bottom ; background-color: #ffffff ; font-family: &amp;quot;times new roman&amp;quot; ; font-size: 12pt ; font-weight: normal&quot;&gt;El ultimo tren&lt;/td&gt;&lt;td style=&quot;overflow: hidden ; padding: 2px 3px 2px 3px ; vertical-align: bottom ; background-color: #ffffff ; font-family: &amp;quot;times new roman&amp;quot; ; font-size: 12pt ; font-weight: normal&quot;&gt;Diego Arsuaga&lt;/td&gt;&lt;td style=&quot;overflow: hidden ; padding: 2px 3px 2px 3px ; vertical-align: bottom ; background-color: #ffffff ; font-family: &amp;quot;times new roman&amp;quot; ; font-size: 12pt ; font-weight: normal&quot;&gt;2002&lt;/td&gt;&lt;td style=&quot;overflow: hidden ; padding: 2px 3px 2px 3px ; vertical-align: bottom&quot;&gt;contemporaneo&lt;/td&gt;&lt;/tr&gt;&lt;tr style=&quot;height: 21px&quot;&gt;&lt;td style=&quot;overflow: hidden ; padding: 2px 3px 2px 3px ; vertical-align: bottom ; background-color: #ffffff ; font-family: &amp;quot;times new roman&amp;quot; ; font-size: 12pt ; font-weight: normal&quot;&gt;Polar Express&lt;/td&gt;&lt;td style=&quot;overflow: hidden ; padding: 2px 3px 2px 3px ; vertical-align: bottom ; background-color: #ffffff ; font-family: &amp;quot;times new roman&amp;quot; ; font-size: 12pt ; font-weight: normal&quot;&gt;Robert Zemeckis&lt;/td&gt;&lt;td style=&quot;overflow: hidden ; padding: 2px 3px 2px 3px ; vertical-align: bottom ; background-color: #ffffff ; font-family: &amp;quot;times new roman&amp;quot; ; font-size: 12pt ; font-weight: normal&quot;&gt;2004&lt;/td&gt;&lt;td style=&quot;overflow: hidden ; padding: 2px 3px 2px 3px ; vertical-align: bottom&quot;&gt;contemporaneo&lt;/td&gt;&lt;/tr&gt;&lt;tr style=&quot;height: 21px&quot;&gt;&lt;td style=&quot;overflow: hidden ; padding: 2px 3px 2px 3px ; vertical-align: bottom ; background-color: #ffffff ; font-family: &amp;quot;times new roman&amp;quot; ; font-size: 12pt ; font-weight: normal&quot;&gt;Viaje a Darjeeling&lt;/td&gt;&lt;td style=&quot;overflow: hidden ; padding: 2px 3px 2px 3px ; vertical-align: bottom ; background-color: #ffffff ; font-family: &amp;quot;times new roman&amp;quot; ; font-size: 12pt ; font-weight: normal&quot;&gt;Wes Anderson&lt;/td&gt;&lt;td style=&quot;overflow: hidden ; padding: 2px 3px 2px 3px ; vertical-align: bottom ; background-color: #ffffff ; font-family: &amp;quot;times new roman&amp;quot; ; font-size: 12pt ; font-weight: normal&quot;&gt;2007&lt;/td&gt;&lt;td style=&quot;overflow: hidden ; padding: 2px 3px 2px 3px ; vertical-align: bottom&quot;&gt;contemporaneo&lt;/td&gt;&lt;/tr&gt;&lt;tr style=&quot;height: 21px&quot;&gt;&lt;td style=&quot;overflow: hidden ; padding: 2px 3px 2px 3px ; vertical-align: bottom ; background-color: #ffffff ; font-family: &amp;quot;times new roman&amp;quot; ; font-size: 12pt ; font-weight: normal&quot;&gt;Transsiberian&lt;/td&gt;&lt;td style=&quot;overflow: hidden ; padding: 2px 3px 2px 3px ; vertical-align: bottom ; background-color: #ffffff ; font-family: &amp;quot;times new roman&amp;quot; ; font-size: 12pt ; font-weight: normal&quot;&gt;Brad Anderson&lt;/td&gt;&lt;td style=&quot;overflow: hidden ; padding: 2px 3px 2px 3px ; vertical-align: bottom ; background-color: #ffffff ; font-family: &amp;quot;times new roman&amp;quot; ; font-size: 12pt ; font-weight: normal&quot;&gt;2008&lt;/td&gt;&lt;td style=&quot;overflow: hidden ; padding: 2px 3px 2px 3px ; vertical-align: bottom&quot;&gt;contemporaneo&lt;/td&gt;&lt;/tr&gt;&lt;tr style=&quot;height: 21px&quot;&gt;&lt;td style=&quot;overflow: hidden ; padding: 2px 3px 2px 3px ; vertical-align: bottom ; background-color: #ffffff ; font-family: &amp;quot;times new roman&amp;quot; ; font-size: 12pt ; font-weight: normal&quot;&gt;El vagón de la muerte&lt;/td&gt;&lt;td style=&quot;overflow: hidden ; padding: 2px 3px 2px 3px ; vertical-align: bottom ; background-color: #ffffff ; font-family: &amp;quot;times new roman&amp;quot; ; font-size: 12pt ; font-weight: normal&quot;&gt;Ryuhei Kitamura&lt;/td&gt;&lt;td style=&quot;overflow: hidden ; padding: 2px 3px 2px 3px ; vertical-align: bottom ; background-color: #ffffff ; font-family: &amp;quot;times new roman&amp;quot; ; font-size: 12pt ; font-weight: normal&quot;&gt;2008&lt;/td&gt;&lt;td style=&quot;overflow: hidden ; padding: 2px 3px 2px 3px ; vertical-align: bottom&quot;&gt;contemporaneo&lt;/td&gt;&lt;/tr&gt;&lt;tr style=&quot;height: 21px&quot;&gt;&lt;td style=&quot;overflow: hidden ; padding: 2px 3px 2px 3px ; vertical-align: bottom ; font-family: &amp;quot;times new roman&amp;quot; ; font-size: 12pt ; font-weight: normal&quot;&gt;Asalto al tren Pelham 123&lt;/td&gt;&lt;td style=&quot;overflow: hidden ; padding: 2px 3px 2px 3px ; vertical-align: bottom ; background-color: #ffffff ; font-family: &amp;quot;times new roman&amp;quot; ; font-size: 12pt ; font-weight: normal&quot;&gt;Tony Scott&lt;/td&gt;&lt;td style=&quot;overflow: hidden ; padding: 2px 3px 2px 3px ; vertical-align: bottom ; background-color: #ffffff ; font-family: &amp;quot;times new roman&amp;quot; ; font-size: 12pt ; font-weight: normal&quot;&gt;2009&lt;/td&gt;&lt;td style=&quot;overflow: hidden ; padding: 2px 3px 2px 3px ; vertical-align: bottom&quot;&gt;contemporaneo&lt;/td&gt;&lt;/tr&gt;&lt;tr style=&quot;height: 21px&quot;&gt;&lt;td style=&quot;overflow: hidden ; padding: 2px 3px 2px 3px ; vertical-align: bottom ; font-family: &amp;quot;times new roman&amp;quot; ; font-size: 12pt ; font-weight: normal&quot;&gt;Imparable&lt;/td&gt;&lt;td style=&quot;overflow: hidden ; padding: 2px 3px 2px 3px ; vertical-align: bottom ; background-color: #ffffff ; font-family: &amp;quot;times new roman&amp;quot; ; font-size: 12pt ; font-weight: normal&quot;&gt;Tony Scott&lt;/td&gt;&lt;td style=&quot;overflow: hidden ; padding: 2px 3px 2px 3px ; vertical-align: bottom ; background-color: #ffffff ; font-family: &amp;quot;times new roman&amp;quot; ; font-size: 12pt ; font-weight: normal&quot;&gt;2010&lt;/td&gt;&lt;td style=&quot;overflow: hidden ; padding: 2px 3px 2px 3px ; vertical-align: bottom&quot;&gt;contemporaneo&lt;/td&gt;&lt;/tr&gt;&lt;tr style=&quot;height: 21px&quot;&gt;&lt;td style=&quot;overflow: hidden ; padding: 2px 3px 2px 3px ; vertical-align: bottom ; background-color: #ffffff ; font-family: &amp;quot;times new roman&amp;quot; ; font-size: 12pt ; font-weight: normal&quot;&gt;Código fuente&lt;/td&gt;&lt;td style=&quot;overflow: hidden ; padding: 2px 3px 2px 3px ; vertical-align: bottom ; background-color: #ffffff ; font-family: &amp;quot;times new roman&amp;quot; ; font-size: 12pt ; font-weight: normal&quot;&gt;Duncan Jones&lt;/td&gt;&lt;td style=&quot;overflow: hidden ; padding: 2px 3px 2px 3px ; vertical-align: bottom ; background-color: #ffffff ; font-family: &amp;quot;times new roman&amp;quot; ; font-size: 12pt ; font-weight: normal&quot;&gt;2011&lt;/td&gt;&lt;td style=&quot;overflow: hidden ; padding: 2px 3px 2px 3px ; vertical-align: bottom&quot;&gt;contemporaneo&lt;/td&gt;&lt;/tr&gt;&lt;tr style=&quot;height: 21px&quot;&gt;&lt;td style=&quot;overflow: hidden ; padding: 2px 3px 2px 3px ; vertical-align: bottom ; background-color: #ffffff ; font-family: &amp;quot;times new roman&amp;quot; ; font-size: 12pt ; font-weight: normal&quot;&gt;Tren de noche a Lisboa&lt;/td&gt;&lt;td style=&quot;overflow: hidden ; padding: 2px 3px 2px 3px ; vertical-align: bottom ; background-color: #ffffff ; font-family: &amp;quot;times new roman&amp;quot; ; font-size: 12pt ; font-weight: normal&quot;&gt;Bille August&lt;/td&gt;&lt;td style=&quot;overflow: hidden ; padding: 2px 3px 2px 3px ; vertical-align: bottom ; background-color: #ffffff ; font-family: &amp;quot;times new roman&amp;quot; ; font-size: 12pt ; font-weight: normal&quot;&gt;2013&lt;/td&gt;&lt;td style=&quot;overflow: hidden ; padding: 2px 3px 2px 3px ; vertical-align: bottom&quot;&gt;contemporaneo&lt;/td&gt;&lt;/tr&gt;&lt;tr style=&quot;height: 21px&quot;&gt;&lt;td style=&quot;overflow: hidden ; padding: 2px 3px 2px 3px ; vertical-align: bottom ; font-family: &amp;quot;times new roman&amp;quot; ; font-size: 12pt ; font-weight: normal&quot;&gt;Pánico en el metro&lt;/td&gt;&lt;td style=&quot;overflow: hidden ; padding: 2px 3px 2px 3px ; vertical-align: bottom ; background-color: #ffffff ; font-family: &amp;quot;times new roman&amp;quot; ; font-size: 12pt ; font-weight: normal&quot;&gt;Anton Megerdichev&lt;/td&gt;&lt;td style=&quot;overflow: hidden ; padding: 2px 3px 2px 3px ; vertical-align: bottom ; background-color: #ffffff ; font-family: &amp;quot;times new roman&amp;quot; ; font-size: 12pt ; font-weight: normal&quot;&gt;2013&lt;/td&gt;&lt;td style=&quot;overflow: hidden ; padding: 2px 3px 2px 3px ; vertical-align: bottom&quot;&gt;contemporaneo&lt;/td&gt;&lt;/tr&gt;&lt;tr style=&quot;height: 21px&quot;&gt;&lt;td style=&quot;overflow: hidden ; padding: 2px 3px 2px 3px ; vertical-align: bottom ; font-family: &amp;quot;times new roman&amp;quot; ; font-size: 12pt ; font-weight: normal&quot;&gt;Snowpiercer&lt;/td&gt;&lt;td style=&quot;overflow: hidden ; padding: 2px 3px 2px 3px ; vertical-align: bottom ; background-color: #ffffff ; font-family: &amp;quot;times new roman&amp;quot; ; font-size: 12pt ; font-weight: normal&quot;&gt;Bong Joon-ho&lt;/td&gt;&lt;td style=&quot;overflow: hidden ; padding: 2px 3px 2px 3px ; vertical-align: bottom ; background-color: #ffffff ; font-family: &amp;quot;times new roman&amp;quot; ; font-size: 12pt ; font-weight: normal&quot;&gt;2013&lt;/td&gt;&lt;td style=&quot;overflow: hidden ; padding: 2px 3px 2px 3px ; vertical-align: bottom&quot;&gt;contemporaneo&lt;/td&gt;&lt;/tr&gt;&lt;tr style=&quot;height: 21px&quot;&gt;&lt;td style=&quot;overflow: hidden ; padding: 2px 3px 2px 3px ; vertical-align: bottom ; background-color: #ffffff ; font-family: &amp;quot;times new roman&amp;quot; ; font-size: 12pt ; font-weight: normal&quot;&gt;Estación zombi&lt;/td&gt;&lt;td style=&quot;overflow: hidden ; padding: 2px 3px 2px 3px ; vertical-align: bottom ; background-color: #ffffff ; font-family: &amp;quot;times new roman&amp;quot; ; font-size: 12pt ; font-weight: normal&quot;&gt;Yeon Sang-ho&lt;/td&gt;&lt;td style=&quot;overflow: hidden ; padding: 2px 3px 2px 3px ; vertical-align: bottom ; background-color: #ffffff ; font-family: &amp;quot;times new roman&amp;quot; ; font-size: 12pt ; font-weight: normal&quot;&gt;2016&lt;/td&gt;&lt;td style=&quot;overflow: hidden ; padding: 2px 3px 2px 3px ; vertical-align: bottom&quot;&gt;contemporaneo&lt;/td&gt;&lt;/tr&gt;&lt;tr style=&quot;height: 21px&quot;&gt;&lt;td style=&quot;overflow: hidden ; padding: 2px 3px 2px 3px ; vertical-align: bottom ; background-color: #ffffff ; font-family: &amp;quot;times new roman&amp;quot; ; font-size: 12pt ; font-weight: normal&quot;&gt;Asesinato en el Orient Express&lt;/td&gt;&lt;td style=&quot;overflow: hidden ; padding: 2px 3px 2px 3px ; vertical-align: bottom ; background-color: #ffffff ; font-family: &amp;quot;times new roman&amp;quot; ; font-size: 12pt ; font-weight: normal&quot;&gt;Kenneth Branagh&lt;/td&gt;&lt;td style=&quot;overflow: hidden ; padding: 2px 3px 2px 3px ; vertical-align: bottom ; background-color: #ffffff ; font-family: &amp;quot;times new roman&amp;quot; ; font-size: 12pt ; font-weight: normal&quot;&gt;2017&lt;/td&gt;&lt;td style=&quot;overflow: hidden ; padding: 2px 3px 2px 3px ; vertical-align: bottom&quot;&gt;contemporaneo&lt;/td&gt;&lt;/tr&gt;&lt;tr style=&quot;height: 21px&quot;&gt;&lt;td style=&quot;overflow: hidden ; padding: 2px 3px 2px 3px ; vertical-align: bottom ; background-color: #ffffff ; font-family: &amp;quot;times new roman&amp;quot; ; font-size: 12pt ; font-weight: normal&quot;&gt;15:17 Tren a París&lt;/td&gt;&lt;td style=&quot;overflow: hidden ; padding: 2px 3px 2px 3px ; vertical-align: bottom ; background-color: #ffffff ; font-family: &amp;quot;times new roman&amp;quot; ; font-size: 12pt ; font-weight: normal&quot;&gt;Clint Eastwood&lt;/td&gt;&lt;td style=&quot;overflow: hidden ; padding: 2px 3px 2px 3px ; vertical-align: bottom ; background-color: #ffffff ; font-family: &amp;quot;times new roman&amp;quot; ; font-size: 12pt ; font-weight: normal&quot;&gt;2018&lt;/td&gt;&lt;td style=&quot;overflow: hidden ; padding: 2px 3px 2px 3px ; vertical-align: bottom&quot;&gt;contemporaneo&lt;/td&gt;&lt;/tr&gt;&lt;tr style=&quot;height: 21px&quot;&gt;&lt;td style=&quot;overflow: hidden ; padding: 2px 3px 2px 3px ; vertical-align: bottom ; font-family: &amp;quot;times new roman&amp;quot; ; font-size: 12pt ; font-weight: normal&quot;&gt;Tren a mi destino&lt;/td&gt;&lt;td style=&quot;overflow: hidden ; padding: 2px 3px 2px 3px ; vertical-align: bottom ; font-family: &amp;quot;times new roman&amp;quot; ; font-size: 12pt ; font-weight: normal&quot;&gt;Ozan Açıktan&lt;/td&gt;&lt;td style=&quot;overflow: hidden ; padding: 2px 3px 2px 3px ; vertical-align: bottom ; background-color: #ffffff ; font-family: &amp;quot;times new roman&amp;quot; ; font-size: 12pt ; font-weight: normal&quot;&gt;2020&lt;/td&gt;&lt;td style=&quot;overflow: hidden ; padding: 2px 3px 2px 3px ; vertical-align: bottom&quot;&gt;contemporaneo&lt;/td&gt;&lt;/tr&gt;&lt;tr style=&quot;height: 21px&quot;&gt;&lt;td style=&quot;overflow: hidden ; padding: 2px 3px 2px 3px ; vertical-align: bottom ; font-family: &amp;quot;times new roman&amp;quot; ; font-size: 12pt ; font-weight: normal&quot;&gt;Kimetsu no Yaiba: Tren infinito&lt;/td&gt;&lt;td style=&quot;overflow: hidden ; padding: 2px 3px 2px 3px ; vertical-align: bottom ; font-family: &amp;quot;times new roman&amp;quot; ; font-size: 12pt ; font-weight: normal&quot;&gt;Haruo Sotozaki&lt;/td&gt;&lt;td style=&quot;overflow: hidden ; padding: 2px 3px 2px 3px ; vertical-align: bottom ; background-color: #ffffff ; font-family: &amp;quot;times new roman&amp;quot; ; font-size: 12pt ; font-weight: normal&quot;&gt;2020&lt;/td&gt;&lt;td style=&quot;overflow: hidden ; padding: 2px 3px 2px 3px ; vertical-align: bottom&quot;&gt;contemporaneo&lt;/td&gt;&lt;/tr&gt;&lt;/tbody&gt;&lt;/table&gt;" style="text;whiteSpace=wrap;html=1;" vertex="1" parent="1">
          <mxGeometry x="150" y="80" width="550" height="840" as="geometry" />
        </mxCell>
      </root>
    </mxGraphModel>
  </diagram>
</mxfile>
